<svg id="visual" viewBox="0 0 900 600" width="900" height="600" xmlns="http://www.w3.org/2000/svg" xmlns:xlink="http://www.w3.org/1999/xlink" version="1.1"><rect x="0" y="0" width="900" height="600" fill="#fff3c0"></rect><g fill="#ffde9e"><circle r="25" cx="216" cy="133"></circle><circle r="2" cx="434" cy="165"></circle><circle r="18" cx="26" cy="180"></circle><circle r="11" cx="150" cy="541"></circle><circle r="23" cx="740" cy="191"></circle><circle r="14" cx="493" cy="220"></circle><circle r="11" cx="875" cy="559"></circle><circle r="20" cx="261" cy="28"></circle><circle r="17" cx="300" cy="213"></circle><circle r="12" cx="41" cy="464"></circle><circle r="16" cx="847" cy="229"></circle><circle r="1" cx="859" cy="46"></circle><circle r="10" cx="341" cy="71"></circle><circle r="22" cx="204" cy="210"></circle><circle r="23" cx="141" cy="474"></circle><circle r="11" cx="465" cy="360"></circle><circle r="2" cx="105" cy="282"></circle><circle r="12" cx="585" cy="307"></circle><circle r="21" cx="293" cy="278"></circle><circle r="2" cx="303" cy="358"></circle><circle r="17" cx="451" cy="306"></circle><circle r="20" cx="205" cy="480"></circle><circle r="17" cx="602" cy="130"></circle><circle r="15" cx="875" cy="319"></circle><circle r="15" cx="484" cy="574"></circle><circle r="3" cx="161" cy="47"></circle><circle r="2" cx="98" cy="440"></circle><circle r="22" cx="801" cy="57"></circle><circle r="23" cx="621" cy="404"></circle><circle r="8" cx="292" cy="449"></circle><circle r="7" cx="280" cy="122"></circle><circle r="23" cx="824" cy="536"></circle><circle r="20" cx="674" cy="150"></circle><circle r="18" cx="729" cy="42"></circle><circle r="12" cx="378" cy="244"></circle><circle r="20" cx="795" cy="113"></circle><circle r="13" cx="834" cy="280"></circle><circle r="4" cx="163" cy="260"></circle><circle r="1" cx="664" cy="504"></circle><circle r="6" cx="378" cy="156"></circle><circle r="5" cx="636" cy="315"></circle><circle r="13" cx="781" cy="459"></circle><circle r="3" cx="427" cy="41"></circle><circle r="6" cx="163" cy="396"></circle><circle r="8" cx="490" cy="492"></circle><circle r="18" cx="267" cy="170"></circle><circle r="18" cx="135" cy="200"></circle><circle r="23" cx="59" cy="299"></circle><circle r="15" cx="503" cy="90"></circle><circle r="16" cx="695" cy="227"></circle><circle r="9" cx="423" cy="402"></circle><circle r="11" cx="798" cy="334"></circle><circle r="16" cx="250" cy="322"></circle><circle r="1" cx="537" cy="404"></circle><circle r="4" cx="709" cy="433"></circle><circle r="2" cx="731" cy="327"></circle><circle r="12" cx="35" cy="526"></circle><circle r="9" cx="538" cy="545"></circle><circle r="1" cx="440" cy="223"></circle><circle r="1" cx="326" cy="549"></circle><circle r="19" cx="451" cy="454"></circle><circle r="3" cx="835" cy="143"></circle><circle r="13" cx="577" cy="83"></circle><circle r="19" cx="627" cy="466"></circle><circle r="21" cx="216" cy="426"></circle><circle r="19" cx="506" cy="290"></circle><circle r="11" cx="360" cy="293"></circle><circle r="4" cx="620" cy="220"></circle><circle r="14" cx="510" cy="446"></circle><circle r="13" cx="864" cy="385"></circle><circle r="6" cx="371" cy="363"></circle><circle r="5" cx="760" cy="375"></circle><circle r="2" cx="711" cy="281"></circle><circle r="17" cx="196" cy="569"></circle><circle r="10" cx="539" cy="196"></circle><circle r="23" cx="543" cy="342"></circle><circle r="8" cx="868" cy="475"></circle><circle r="13" cx="139" cy="142"></circle><circle r="22" cx="595" cy="520"></circle><circle r="11" cx="667" cy="89"></circle><circle r="7" cx="387" cy="443"></circle><circle r="15" cx="661" cy="26"></circle><circle r="14" cx="399" cy="108"></circle><circle r="4" cx="562" cy="461"></circle><circle r="15" cx="262" cy="491"></circle><circle r="18" cx="219" cy="69"></circle><circle r="19" cx="100" cy="368"></circle><circle r="5" cx="194" cy="337"></circle><circle r="2" cx="796" cy="207"></circle><circle r="9" cx="411" cy="562"></circle><circle r="22" cx="27" cy="130"></circle><circle r="18" cx="62" cy="216"></circle><circle r="23" cx="595" cy="28"></circle><circle r="20" cx="71" cy="159"></circle><circle r="15" cx="227" cy="263"></circle><circle r="13" cx="87" cy="62"></circle><circle r="11" cx="813" cy="416"></circle><circle r="2" cx="707" cy="532"></circle><circle r="6" cx="474" cy="50"></circle><circle r="19" cx="383" cy="496"></circle><circle r="16" cx="548" cy="42"></circle><circle r="23" cx="435" cy="504"></circle><circle r="3" cx="773" cy="541"></circle><circle r="5" cx="482" cy="169"></circle><circle r="2" cx="604" cy="356"></circle><circle r="17" cx="90" cy="559"></circle><circle r="2" cx="330" cy="488"></circle><circle r="8" cx="725" cy="105"></circle><circle r="9" cx="698" cy="372"></circle><circle r="1" cx="637" cy="575"></circle><circle r="14" cx="314" cy="31"></circle><circle r="18" cx="50" cy="412"></circle><circle r="5" cx="377" cy="33"></circle><circle r="15" cx="30" cy="28"></circle><circle r="4" cx="766" cy="278"></circle><circle r="10" cx="232" cy="534"></circle><circle r="5" cx="331" cy="145"></circle><circle r="6" cx="345" cy="192"></circle><circle r="18" cx="262" cy="408"></circle><circle r="21" cx="543" cy="244"></circle><circle r="10" cx="94" cy="491"></circle><circle r="21" cx="653" cy="263"></circle><circle r="18" cx="871" cy="97"></circle><circle r="13" cx="265" cy="575"></circle><circle r="16" cx="178" cy="99"></circle><circle r="14" cx="335" cy="403"></circle><circle r="5" cx="146" cy="349"></circle><circle r="11" cx="52" cy="349"></circle><circle r="7" cx="583" cy="574"></circle><circle r="4" cx="552" cy="144"></circle><circle r="9" cx="40" cy="79"></circle><circle r="13" cx="778" cy="161"></circle><circle r="22" cx="742" cy="491"></circle><circle r="11" cx="35" cy="575"></circle><circle r="5" cx="90" cy="113"></circle><circle r="10" cx="465" cy="122"></circle><circle r="15" cx="28" cy="259"></circle><circle r="15" cx="868" cy="180"></circle><circle r="6" cx="481" cy="407"></circle><circle r="13" cx="588" cy="181"></circle><circle r="19" cx="404" cy="322"></circle></g></svg>