<svg id="visual" viewBox="0 0 900 600" width="900" height="600" xmlns="http://www.w3.org/2000/svg" xmlns:xlink="http://www.w3.org/1999/xlink" version="1.1"><rect x="0" y="0" width="900" height="600" fill="#ffde9e"></rect><g transform="translate(446.16515592327517 296.95810039707663)"><path d="M48.6 -89.5C59.8 -77.7 63.7 -58.3 78.4 -42.2C93 -26 118.5 -13 128.3 5.7C138.1 24.3 132.3 48.7 120.7 70.2C109.1 91.7 91.8 110.4 70.7 110.7C49.7 111 24.8 93 -0.1 93.2C-25 93.3 -50 111.6 -66 108.4C-82 105.1 -89.1 80.3 -100.1 58.7C-111.1 37 -126 18.5 -125.6 0.3C-125.2 -18 -109.4 -36 -94.4 -50.9C-79.5 -65.7 -65.5 -77.5 -49.9 -86.8C-34.3 -96.1 -17.2 -103.1 0.7 -104.4C18.7 -105.7 37.3 -101.3 48.6 -89.5" fill="#fff3c0"></path></g></svg>