<svg id="visual" viewBox="0 0 900 600" width="900" height="600" xmlns="http://www.w3.org/2000/svg" xmlns:xlink="http://www.w3.org/1999/xlink" version="1.1"><rect x="0" y="0" width="900" height="600" fill="#fff3c0"></rect><g transform="translate(443.05180758658844 303.8571569007118)"><path d="M109.3 -171.3C152.6 -164.3 206.2 -157.2 239.2 -128.6C272.2 -100 284.6 -50 275.7 -5.2C266.7 39.7 236.4 79.3 203 107.2C169.6 135 133 151.1 98.7 156.3C64.3 161.4 32.2 155.7 -6.7 167.3C-45.5 178.8 -91 207.6 -132 206.3C-173 204.9 -209.5 173.5 -234.7 134.1C-260 94.7 -274 47.3 -257.4 9.6C-240.8 -28.2 -193.6 -56.3 -168.7 -96.3C-143.7 -136.3 -141.1 -188.1 -116.7 -206C-92.3 -223.9 -46.2 -208 -6.6 -196.6C33 -185.2 66 -178.3 109.3 -171.3" fill="#ffde9e"></path></g></svg>