<svg id="visual" viewBox="0 0 900 600" width="900" height="600" xmlns="http://www.w3.org/2000/svg" xmlns:xlink="http://www.w3.org/1999/xlink" version="1.1"><rect x="0" y="0" width="900" height="600" fill="#fff3c0"></rect><g transform="translate(422.0287971899284 316.1141224897507)"><path d="M90.6 -158.2C119.2 -140.4 145.3 -119.7 167.3 -92.8C189.3 -66 207.2 -33 210.6 2C214.1 37 203.2 74 179.5 98C155.8 121.9 119.4 132.8 87.4 142.3C55.3 151.8 27.7 159.9 2.7 155.3C-22.3 150.7 -44.7 133.4 -74.3 122.4C-103.8 111.5 -140.7 107 -148.3 87.7C-155.9 68.3 -134.2 34.2 -135.1 -0.5C-135.9 -35.2 -159.3 -70.3 -154.7 -94.7C-150 -119.1 -117.2 -132.7 -86.8 -149.5C-56.3 -166.2 -28.2 -186.1 1.4 -188.6C31 -191 62 -176.1 90.6 -158.2" fill="#ffde9e"></path></g></svg>