<svg id="visual" viewBox="0 0 900 600" width="900" height="600" xmlns="http://www.w3.org/2000/svg" xmlns:xlink="http://www.w3.org/1999/xlink" version="1.1"><rect x="0" y="0" width="900" height="600" fill="#fff3c0"></rect><g fill="#ffde9e"><circle r="55" cx="610" cy="373"></circle><circle r="17" cx="92" cy="179"></circle><circle r="35" cx="805" cy="430"></circle><circle r="41" cx="706" cy="173"></circle><circle r="51" cx="384" cy="424"></circle><circle r="40" cx="486" cy="369"></circle><circle r="49" cx="298" cy="295"></circle><circle r="32" cx="347" cy="146"></circle><circle r="48" cx="516" cy="153"></circle><circle r="21" cx="661" cy="535"></circle><circle r="49" cx="231" cy="454"></circle><circle r="38" cx="221" cy="203"></circle><circle r="22" cx="380" cy="537"></circle><circle r="30" cx="769" cy="273"></circle><circle r="23" cx="134" cy="396"></circle><circle r="20" cx="614" cy="58"></circle><circle r="37" cx="183" cy="98"></circle><circle r="47" cx="529" cy="501"></circle><circle r="44" cx="119" cy="520"></circle><circle r="50" cx="808" cy="131"></circle><circle r="41" cx="67" cy="310"></circle><circle r="16" cx="63" cy="73"></circle><circle r="40" cx="431" cy="62"></circle><circle r="19" cx="427" cy="225"></circle><circle r="49" cx="558" cy="275"></circle><circle r="38" cx="774" cy="540"></circle><circle r="52" cx="724" cy="59"></circle></g></svg>