<svg id="visual" viewBox="0 0 900 600" width="900" height="600" xmlns="http://www.w3.org/2000/svg" xmlns:xlink="http://www.w3.org/1999/xlink" version="1.1"><rect width="900" height="600" fill="#fff3c0"></rect><g><g transform="translate(498 94)"><path d="M0 -45.8L39.6 -22.9L39.6 22.9L0 45.8L-39.6 22.9L-39.6 -22.9Z" fill="#ffde9e"></path></g><g transform="translate(434 232)"><path d="M0 -21L18.2 -10.5L18.2 10.5L0 21L-18.2 10.5L-18.2 -10.5Z" fill="#ffde9e"></path></g><g transform="translate(682 551)"><path d="M0 -32L27.7 -16L27.7 16L0 32L-27.7 16L-27.7 -16Z" fill="#ffde9e"></path></g><g transform="translate(825 371)"><path d="M0 -32L27.7 -16L27.7 16L0 32L-27.7 16L-27.7 -16Z" fill="#ffde9e"></path></g><g transform="translate(823 197)"><path d="M0 -34L29.4 -17L29.4 17L0 34L-29.4 17L-29.4 -17Z" fill="#ffde9e"></path></g><g transform="translate(449 373)"><path d="M0 -27L23.4 -13.5L23.4 13.5L0 27L-23.4 13.5L-23.4 -13.5Z" fill="#ffde9e"></path></g><g transform="translate(539 425)"><path d="M0 -30L26 -15L26 15L0 30L-26 15L-26 -15Z" fill="#ffde9e"></path></g><g transform="translate(47 159)"><path d="M0 -34L29.4 -17L29.4 17L0 34L-29.4 17L-29.4 -17Z" fill="#ffde9e"></path></g><g transform="translate(264 506)"><path d="M0 -42L36.4 -21L36.4 21L0 42L-36.4 21L-36.4 -21Z" fill="#ffde9e"></path></g><g transform="translate(89 360)"><path d="M0 -31L26.8 -15.5L26.8 15.5L0 31L-26.8 15.5L-26.8 -15.5Z" fill="#ffde9e"></path></g><g transform="translate(626 86)"><path d="M0 -27L23.4 -13.5L23.4 13.5L0 27L-23.4 13.5L-23.4 -13.5Z" fill="#ffde9e"></path></g><g transform="translate(171 433)"><path d="M0 -28L24.2 -14L24.2 14L0 28L-24.2 14L-24.2 -14Z" fill="#ffde9e"></path></g><g transform="translate(328 335)"><path d="M0 -37L32 -18.5L32 18.5L0 37L-32 18.5L-32 -18.5Z" fill="#ffde9e"></path></g><g transform="translate(212 97)"><path d="M0 -31L26.8 -15.5L26.8 15.5L0 31L-26.8 15.5L-26.8 -15.5Z" fill="#ffde9e"></path></g><g transform="translate(326 434)"><path d="M0 -23L19.9 -11.5L19.9 11.5L0 23L-19.9 11.5L-19.9 -11.5Z" fill="#ffde9e"></path></g><g transform="translate(729 51)"><path d="M0 -41L35.5 -20.5L35.5 20.5L0 41L-35.5 20.5L-35.5 -20.5Z" fill="#ffde9e"></path></g><g transform="translate(210 255)"><path d="M0 -37L32 -18.5L32 18.5L0 37L-32 18.5L-32 -18.5Z" fill="#ffde9e"></path></g><g transform="translate(610 329)"><path d="M0 -41L35.5 -20.5L35.5 20.5L0 41L-35.5 20.5L-35.5 -20.5Z" fill="#ffde9e"></path></g><g transform="translate(432 515)"><path d="M0 -40L34.6 -20L34.6 20L0 40L-34.6 20L-34.6 -20Z" fill="#ffde9e"></path></g><g transform="translate(832 496)"><path d="M0 -20L17.3 -10L17.3 10L0 20L-17.3 10L-17.3 -10Z" fill="#ffde9e"></path></g><g transform="translate(56 518)"><path d="M0 -31L26.8 -15.5L26.8 15.5L0 31L-26.8 15.5L-26.8 -15.5Z" fill="#ffde9e"></path></g><g transform="translate(719 353)"><path d="M0 -25L21.7 -12.5L21.7 12.5L0 25L-21.7 12.5L-21.7 -12.5Z" fill="#ffde9e"></path></g><g transform="translate(648 459)"><path d="M0 -32L27.7 -16L27.7 16L0 32L-27.7 16L-27.7 -16Z" fill="#ffde9e"></path></g><g transform="translate(394 111)"><path d="M0 -30L26 -15L26 15L0 30L-26 15L-26 -15Z" fill="#ffde9e"></path></g><g transform="translate(111 46)"><path d="M0 -25L21.7 -12.5L21.7 12.5L0 25L-21.7 12.5L-21.7 -12.5Z" fill="#ffde9e"></path></g><g transform="translate(308 214)"><path d="M0 -17L14.7 -8.5L14.7 8.5L0 17L-14.7 8.5L-14.7 -8.5Z" fill="#ffde9e"></path></g><g transform="translate(590 212)"><path d="M0 -29L25.1 -14.5L25.1 14.5L0 29L-25.1 14.5L-25.1 -14.5Z" fill="#ffde9e"></path></g><g transform="translate(730 170)"><path d="M0 -31L26.8 -15.5L26.8 15.5L0 31L-26.8 15.5L-26.8 -15.5Z" fill="#ffde9e"></path></g><g transform="translate(96 263)"><path d="M0 -44L38.1 -22L38.1 22L0 44L-38.1 22L-38.1 -22Z" fill="#ffde9e"></path></g><g transform="translate(589 545)"><path d="M0 -18L15.6 -9L15.6 9L0 18L-15.6 9L-15.6 -9Z" fill="#ffde9e"></path></g><g transform="translate(519 298)"><path d="M0 -25L21.7 -12.5L21.7 12.5L0 25L-21.7 12.5L-21.7 -12.5Z" fill="#ffde9e"></path></g><g transform="translate(308 58)"><path d="M0 -34L29.4 -17L29.4 17L0 34L-29.4 17L-29.4 -17Z" fill="#ffde9e"></path></g><g transform="translate(163 536)"><path d="M0 -36L31.2 -18L31.2 18L0 36L-31.2 18L-31.2 -18Z" fill="#ffde9e"></path></g><g transform="translate(150 168)"><path d="M0 -38L32.9 -19L32.9 19L0 38L-32.9 19L-32.9 -19Z" fill="#ffde9e"></path></g><g transform="translate(850 79)"><path d="M0 -32L27.7 -16L27.7 16L0 32L-27.7 16L-27.7 -16Z" fill="#ffde9e"></path></g><g transform="translate(672 260)"><path d="M0 -34L29.4 -17L29.4 17L0 34L-29.4 17L-29.4 -17Z" fill="#ffde9e"></path></g><g transform="translate(345 553)"><path d="M0 -23L19.9 -11.5L19.9 11.5L0 23L-19.9 11.5L-19.9 -11.5Z" fill="#ffde9e"></path></g><g transform="translate(760 438)"><path d="M0 -27L23.4 -13.5L23.4 13.5L0 27L-23.4 13.5L-23.4 -13.5Z" fill="#ffde9e"></path></g></g></svg>