<svg id="visual" viewBox="0 0 900 600" width="900" height="600" xmlns="http://www.w3.org/2000/svg" xmlns:xlink="http://www.w3.org/1999/xlink" version="1.1"><rect x="0" y="0" width="900" height="600" fill="#fff3c0"></rect><g fill="#ffde9e"><path d="M0 -40.6L9.1 -12.5L38.6 -12.5L14.7 4.8L23.9 32.8L0 15.5L-23.9 32.8L-14.7 4.8L-38.6 -12.5L-9.1 -12.5Z" transform="translate(241 65)"></path><path d="M0 -28.3L6.4 -8.7L26.9 -8.7L10.3 3.3L16.6 22.9L0 10.8L-16.6 22.9L-10.3 3.3L-26.9 -8.7L-6.4 -8.7Z" transform="translate(258 476)"></path><path d="M0 -36.8L8.3 -11.4L35 -11.4L13.4 4.3L21.6 29.8L0 14.1L-21.6 29.8L-13.4 4.3L-35 -11.4L-8.3 -11.4Z" transform="translate(302 249)"></path><path d="M0 -31.1L7 -9.6L29.6 -9.6L11.3 3.7L18.3 25.2L0 11.9L-18.3 25.2L-11.3 3.7L-29.6 -9.6L-7 -9.6Z" transform="translate(351 490)"></path><path d="M0 -37.8L8.5 -11.7L35.9 -11.7L13.7 4.5L22.2 30.5L0 14.4L-22.2 30.5L-13.7 4.5L-35.9 -11.7L-8.5 -11.7Z" transform="translate(753 242)"></path><path d="M0 -33L7.4 -10.2L31.4 -10.2L12 3.9L19.4 26.7L0 12.6L-19.4 26.7L-12 3.9L-31.4 -10.2L-7.4 -10.2Z" transform="translate(541 397)"></path><path d="M0 -30.2L6.8 -9.3L28.7 -9.3L11 3.6L17.8 24.4L0 11.5L-17.8 24.4L-11 3.6L-28.7 -9.3L-6.8 -9.3Z" transform="translate(764 540)"></path><path d="M0 -27.4L6.1 -8.5L26 -8.5L9.9 3.2L16.1 22.1L0 10.5L-16.1 22.1L-9.9 3.2L-26 -8.5L-6.1 -8.5Z" transform="translate(512 169)"></path><path d="M0 -32.1L7.2 -9.9L30.5 -9.9L11.7 3.8L18.9 26L0 12.3L-18.9 26L-11.7 3.8L-30.5 -9.9L-7.2 -9.9Z" transform="translate(693 79)"></path><path d="M0 -32.1L7.2 -9.9L30.5 -9.9L11.7 3.8L18.9 26L0 12.3L-18.9 26L-11.7 3.8L-30.5 -9.9L-7.2 -9.9Z" transform="translate(133 198)"></path><path d="M0 -33L7.4 -10.2L31.4 -10.2L12 3.9L19.4 26.7L0 12.6L-19.4 26.7L-12 3.9L-31.4 -10.2L-7.4 -10.2Z" transform="translate(848 194)"></path><path d="M0 -31.1L7 -9.6L29.6 -9.6L11.3 3.7L18.3 25.2L0 11.9L-18.3 25.2L-11.3 3.7L-29.6 -9.6L-7 -9.6Z" transform="translate(390 114)"></path><path d="M0 -34.9L7.8 -10.8L33.2 -10.8L12.7 4.1L20.5 28.3L0 13.3L-20.5 28.3L-12.7 4.1L-33.2 -10.8L-7.8 -10.8Z" transform="translate(292 391)"></path><path d="M0 -32.1L7.2 -9.9L30.5 -9.9L11.7 3.8L18.9 26L0 12.3L-18.9 26L-11.7 3.8L-30.5 -9.9L-7.2 -9.9Z" transform="translate(657 376)"></path><path d="M0 -35.9L8.1 -11.1L34.1 -11.1L13 4.2L21.1 29L0 13.7L-21.1 29L-13 4.2L-34.1 -11.1L-8.1 -11.1Z" transform="translate(640 231)"></path><path d="M0 -36.8L8.3 -11.4L35 -11.4L13.4 4.3L21.6 29.8L0 14.1L-21.6 29.8L-13.4 4.3L-35 -11.4L-8.3 -11.4Z" transform="translate(826 405)"></path><path d="M0 -33L7.4 -10.2L31.4 -10.2L12 3.9L19.4 26.7L0 12.6L-19.4 26.7L-12 3.9L-31.4 -10.2L-7.4 -10.2Z" transform="translate(515 522)"></path><path d="M0 -32.1L7.2 -9.9L30.5 -9.9L11.7 3.8L18.9 26L0 12.3L-18.9 26L-11.7 3.8L-30.5 -9.9L-7.2 -9.9Z" transform="translate(553 46)"></path><path d="M0 -34.9L7.8 -10.8L33.2 -10.8L12.7 4.1L20.5 28.3L0 13.3L-20.5 28.3L-12.7 4.1L-33.2 -10.8L-7.8 -10.8Z" transform="translate(149 52)"></path><path d="M0 -34L7.6 -10.5L32.3 -10.5L12.3 4L20 27.5L0 13L-20 27.5L-12.3 4L-32.3 -10.5L-7.6 -10.5Z" transform="translate(799 47)"></path><path d="M0 -35.9L8.1 -11.1L34.1 -11.1L13 4.2L21.1 29L0 13.7L-21.1 29L-13 4.2L-34.1 -11.1L-8.1 -11.1Z" transform="translate(76 343)"></path><path d="M0 -37.8L8.5 -11.7L35.9 -11.7L13.7 4.5L22.2 30.5L0 14.4L-22.2 30.5L-13.7 4.5L-35.9 -11.7L-8.5 -11.7Z" transform="translate(610 537)"></path><path d="M0 -34.9L7.8 -10.8L33.2 -10.8L12.7 4.1L20.5 28.3L0 13.3L-20.5 28.3L-12.7 4.1L-33.2 -10.8L-7.8 -10.8Z" transform="translate(500 320)"></path><path d="M0 -35.9L8.1 -11.1L34.1 -11.1L13 4.2L21.1 29L0 13.7L-21.1 29L-13 4.2L-34.1 -11.1L-8.1 -11.1Z" transform="translate(402 259)"></path><path d="M0 -34.9L7.8 -10.8L33.2 -10.8L12.7 4.1L20.5 28.3L0 13.3L-20.5 28.3L-12.7 4.1L-33.2 -10.8L-7.8 -10.8Z" transform="translate(45 487)"></path><path d="M0 -28.3L6.4 -8.7L26.9 -8.7L10.3 3.3L16.6 22.9L0 10.8L-16.6 22.9L-10.3 3.3L-26.9 -8.7L-6.4 -8.7Z" transform="translate(611 127)"></path><path d="M0 -32.1L7.2 -9.9L30.5 -9.9L11.7 3.8L18.9 26L0 12.3L-18.9 26L-11.7 3.8L-30.5 -9.9L-7.2 -9.9Z" transform="translate(182 423)"></path><path d="M0 -36.8L8.3 -11.4L35 -11.4L13.4 4.3L21.6 29.8L0 14.1L-21.6 29.8L-13.4 4.3L-35 -11.4L-8.3 -11.4Z" transform="translate(755 146)"></path><path d="M0 -37.8L8.5 -11.7L35.9 -11.7L13.7 4.5L22.2 30.5L0 14.4L-22.2 30.5L-13.7 4.5L-35.9 -11.7L-8.5 -11.7Z" transform="translate(63 123)"></path><path d="M0 -29.3L6.6 -9L27.8 -9L10.6 3.5L17.2 23.7L0 11.2L-17.2 23.7L-10.6 3.5L-27.8 -9L-6.6 -9Z" transform="translate(226 190)"></path><path d="M0 -32.1L7.2 -9.9L30.5 -9.9L11.7 3.8L18.9 26L0 12.3L-18.9 26L-11.7 3.8L-30.5 -9.9L-7.2 -9.9Z" transform="translate(227 302)"></path><path d="M0 -34L7.6 -10.5L32.3 -10.5L12.3 4L20 27.5L0 13L-20 27.5L-12.3 4L-32.3 -10.5L-7.6 -10.5Z" transform="translate(805 310)"></path><path d="M0 -38.7L8.7 -12L36.8 -12L14.1 4.6L22.7 31.3L0 14.8L-22.7 31.3L-14.1 4.6L-36.8 -12L-8.7 -12Z" transform="translate(444 472)"></path><path d="M0 -35.9L8.1 -11.1L34.1 -11.1L13 4.2L21.1 29L0 13.7L-21.1 29L-13 4.2L-34.1 -11.1L-8.1 -11.1Z" transform="translate(670 464)"></path><path d="M0 -27.4L6.1 -8.5L26 -8.5L9.9 3.2L16.1 22.1L0 10.5L-16.1 22.1L-9.9 3.2L-26 -8.5L-6.1 -8.5Z" transform="translate(432 377)"></path><path d="M0 -36.8L8.3 -11.4L35 -11.4L13.4 4.3L21.6 29.8L0 14.1L-21.6 29.8L-13.4 4.3L-35 -11.4L-8.3 -11.4Z" transform="translate(306 155)"></path><path d="M0 -35.9L8.1 -11.1L34.1 -11.1L13 4.2L21.1 29L0 13.7L-21.1 29L-13 4.2L-34.1 -11.1L-8.1 -11.1Z" transform="translate(47 232)"></path><path d="M0 -32.1L7.2 -9.9L30.5 -9.9L11.7 3.8L18.9 26L0 12.3L-18.9 26L-11.7 3.8L-30.5 -9.9L-7.2 -9.9Z" transform="translate(177 538)"></path><path d="M0 -32.1L7.2 -9.9L30.5 -9.9L11.7 3.8L18.9 26L0 12.3L-18.9 26L-11.7 3.8L-30.5 -9.9L-7.2 -9.9Z" transform="translate(587 301)"></path><path d="M0 -35.9L8.1 -11.1L34.1 -11.1L13 4.2L21.1 29L0 13.7L-21.1 29L-13 4.2L-34.1 -11.1L-8.1 -11.1Z" transform="translate(464 65)"></path><path d="M0 -37.8L8.5 -11.7L35.9 -11.7L13.7 4.5L22.2 30.5L0 14.4L-22.2 30.5L-13.7 4.5L-35.9 -11.7L-8.5 -11.7Z" transform="translate(845 503)"></path><path d="M0 -33L7.4 -10.2L31.4 -10.2L12 3.9L19.4 26.7L0 12.6L-19.4 26.7L-12 3.9L-31.4 -10.2L-7.4 -10.2Z" transform="translate(331 47)"></path></g></svg>