<svg id="visual" viewBox="0 0 900 600" width="900" height="600" xmlns="http://www.w3.org/2000/svg" xmlns:xlink="http://www.w3.org/1999/xlink" version="1.1"><rect width="900" height="600" fill="#fff3c0"></rect><g><g transform="translate(68 142)"><path d="M12.2 -16C17.7 -10 25.2 -7.9 30.3 -1.9C35.5 4 38.2 13.8 33.7 17.4C29.2 20.9 17.4 18.3 7.6 22.5C-2.2 26.8 -10.1 38 -19.2 40.1C-28.3 42.3 -38.8 35.3 -43.8 25.7C-48.8 16.1 -48.5 3.8 -46.5 -8.4C-44.5 -20.5 -41 -32.6 -33 -38.1C-25 -43.7 -12.5 -42.7 -4.6 -37.2C3.4 -31.8 6.8 -22 12.2 -16Z" fill="none" stroke="#ffde9e" stroke-width="20"></path></g><g transform="translate(598 264)"><path d="M22.7 -24.5C31.6 -19.6 42.5 -14.5 41.7 -8.9C40.8 -3.3 28.2 2.9 22 12C15.9 21.1 16.2 33.2 10.7 39.5C5.2 45.9 -6 46.6 -16.3 43.4C-26.7 40.3 -36.2 33.3 -37.5 24.7C-38.8 16.1 -31.9 5.9 -28.5 -3.6C-25.2 -13.1 -25.3 -21.7 -21.2 -27.6C-17 -33.4 -8.5 -36.3 -0.8 -35.4C6.9 -34.4 13.8 -29.5 22.7 -24.5Z" stroke="#ffde9e" fill="none" stroke-width="20"></path></g><g transform="translate(158 509)"><path d="M24.4 -31C30.6 -23.8 34 -15.2 33.3 -7.5C32.7 0.1 28.1 6.8 22.8 10.4C17.4 13.9 11.4 14.3 5.3 18.1C-0.8 21.9 -7 29.1 -11 28.4C-15 27.8 -16.9 19.3 -22.5 11.9C-28.1 4.4 -37.5 -1.9 -36.4 -6.1C-35.3 -10.3 -23.7 -12.4 -15.9 -19.4C-8.1 -26.3 -4.1 -38.1 2.5 -41.1C9.1 -44.1 18.1 -38.2 24.4 -31Z" stroke="#ffde9e" fill="none" stroke-width="20"></path></g><g transform="translate(195 371)"><path d="M26.4 -30.5C35.1 -24.1 43.8 -16.7 41.5 -10.2C39.1 -3.7 25.9 1.8 18.1 6C10.3 10.2 8.1 13 4.1 16.8C0.2 20.6 -5.3 25.3 -12.8 26.4C-20.3 27.5 -29.8 25.1 -32.3 19.3C-34.9 13.6 -30.5 4.5 -28.6 -4.8C-26.6 -14 -27.1 -23.4 -22.7 -30.5C-18.4 -37.6 -9.2 -42.4 -0.2 -42.2C8.8 -42 17.7 -36.8 26.4 -30.5Z" stroke="#ffde9e" fill="none" stroke-width="20"></path></g><g transform="translate(382 481)"><path d="M9.6 -14C12.8 -8.8 15.9 -6.1 18.4 -1.8C20.9 2.5 22.7 8.3 22.3 16.4C21.8 24.5 19.1 34.7 13.1 37.6C7.1 40.5 -2.2 36 -11.6 32.4C-21 28.7 -30.6 26 -36.1 19.4C-41.6 12.9 -43 2.5 -42.2 -8.3C-41.4 -19.2 -38.3 -30.6 -30.9 -35.1C-23.4 -39.6 -11.7 -37.3 -4.3 -32.2C3.2 -27.1 6.4 -19.3 9.6 -14Z" stroke="#ffde9e" fill="none" stroke-width="20"></path></g><g transform="translate(787 98)"><path d="M13.6 -14.8C19.7 -11.1 28 -8.8 30.8 -3.8C33.6 1.1 30.8 8.7 25.5 11.7C20.1 14.8 12.2 13.4 5.1 17.4C-2 21.4 -8.3 30.8 -14.3 31.8C-20.3 32.9 -26 25.6 -26.1 18.4C-26.3 11.2 -21.1 4.2 -18.3 -1.8C-15.5 -7.7 -15.1 -12.7 -12.5 -16.9C-9.9 -21.2 -4.9 -24.7 -0.6 -24C3.8 -23.3 7.5 -18.4 13.6 -14.8Z" stroke="#ffde9e" fill="none" stroke-width="20"></path></g><g transform="translate(812 341)"><path d="M25.7 -25.1C34.2 -23.5 42.7 -16.2 43.5 -8.2C44.4 -0.1 37.6 8.9 31.8 17.9C26 26.9 21.2 36 14.8 36.4C8.5 36.8 0.5 28.6 -7.5 24.1C-15.5 19.7 -23.7 19 -27.8 14.7C-31.9 10.4 -32 2.3 -29.3 -3.7C-26.5 -9.8 -20.8 -13.9 -15.4 -16C-10.1 -18.2 -5 -18.4 1.8 -20.5C8.6 -22.6 17.2 -26.6 25.7 -25.1Z" stroke="#ffde9e" fill="none" stroke-width="20"></path></g><g transform="translate(560 456)"><path d="M27.6 -28.8C36.3 -25.7 44.1 -17.4 45.5 -8.2C47 1 42 11.2 35.2 17.8C28.4 24.4 19.7 27.3 10.7 31.4C1.8 35.5 -7.5 40.7 -13.6 38.1C-19.7 35.5 -22.7 25.2 -26.8 16.3C-30.9 7.5 -36.1 0.1 -37 -8.5C-37.9 -17.2 -34.4 -27.1 -27.5 -30.5C-20.7 -33.9 -10.3 -30.8 -0.4 -30.3C9.5 -29.8 19 -31.9 27.6 -28.8Z" stroke="#ffde9e" fill="none" stroke-width="20"></path></g><g transform="translate(262 80)"><path d="M26.7 -29.3C32.6 -26.9 33.9 -16.6 32.6 -8.1C31.2 0.3 27.1 6.8 24 15.3C20.8 23.9 18.6 34.4 13.5 35.6C8.4 36.8 0.5 28.6 -8.3 24.6C-17.1 20.6 -26.7 20.8 -29.7 16.7C-32.7 12.5 -29.1 4 -27.8 -5.2C-26.5 -14.4 -27.6 -24.3 -23.4 -27.1C-19.2 -29.8 -9.6 -25.3 0.4 -25.8C10.4 -26.3 20.8 -31.8 26.7 -29.3Z" stroke="#ffde9e" fill="none" stroke-width="20"></path></g><g transform="translate(64 405)"><path d="M19.4 -23.8C26.2 -17.4 33.5 -12.3 32.2 -7.5C30.9 -2.7 21 1.9 16 8C11 14.2 10.9 21.9 6.7 27.4C2.5 32.8 -5.9 36 -13.4 34.4C-20.9 32.7 -27.6 26.3 -30 18.9C-32.4 11.5 -30.4 3.3 -29.5 -5.8C-28.6 -14.8 -28.8 -24.7 -24 -31.4C-19.3 -38.1 -9.6 -41.8 -1.7 -39.8C6.3 -37.8 12.6 -30.1 19.4 -23.8Z" stroke="#ffde9e" fill="none" stroke-width="20"></path></g><g transform="translate(651 535)"><path d="M22.2 -23.5C29.9 -20 38.2 -14.1 38.3 -7.6C38.4 -1.2 30.3 5.8 23.6 10.1C16.9 14.5 11.7 16.2 6 19.6C0.3 23 -5.9 28.1 -13.3 28.8C-20.8 29.5 -29.5 25.8 -31.6 19.5C-33.6 13.3 -29 4.5 -27.1 -4.6C-25.3 -13.7 -26.3 -23.2 -22.3 -27.4C-18.2 -31.6 -9.1 -30.6 -0.9 -29.5C7.2 -28.3 14.5 -27.1 22.2 -23.5Z" stroke="#ffde9e" fill="none" stroke-width="20"></path></g><g transform="translate(775 460)"><path d="M24 -30.3C29.9 -23.5 32.9 -14.9 33.9 -6.4C34.8 2.1 33.8 10.5 29.1 15C24.3 19.6 16 20.3 8.9 21.7C1.8 23.1 -4.1 25.3 -9.5 24.2C-15 23.1 -19.9 18.7 -25.3 12.9C-30.7 7.1 -36.4 -0.2 -35.8 -6.8C-35.2 -13.4 -28.2 -19.3 -21.2 -25.9C-14.1 -32.5 -7.1 -39.7 1 -40.9C9 -42 18 -37.1 24 -30.3Z" stroke="#ffde9e" fill="none" stroke-width="20"></path></g><g transform="translate(436 136)"><path d="M10.4 -11.7C14.6 -8.8 20.1 -6.7 22.7 -2.4C25.4 1.8 25.3 8.2 23.3 15.3C21.4 22.3 17.6 30.2 11.7 32.4C5.9 34.5 -2.1 31.1 -7.3 26.4C-12.4 21.7 -14.8 15.8 -19.3 10.1C-23.7 4.4 -30.3 -1 -30.3 -6.1C-30.3 -11.1 -23.7 -15.8 -17.6 -18.3C-11.4 -20.8 -5.7 -21.2 -1.3 -19.6C3.1 -18 6.1 -14.5 10.4 -11.7Z" stroke="#ffde9e" fill="none" stroke-width="20"></path></g><g transform="translate(425 261)"><path d="M22.6 -28.3C28.1 -22.3 30.6 -14.1 29.5 -7.2C28.3 -0.3 23.5 5.3 18.9 8.8C14.4 12.4 10 14 5.3 16.5C0.6 19 -4.4 22.4 -12.7 24C-21 25.7 -32.6 25.6 -36 20.5C-39.4 15.3 -34.5 5 -32 -5.1C-29.6 -15.2 -29.5 -25.1 -24.5 -31.2C-19.6 -37.2 -9.8 -39.5 -0.6 -38.7C8.6 -38 17.1 -34.3 22.6 -28.3Z" stroke="#ffde9e" fill="none" stroke-width="20"></path></g><g transform="translate(307 323)"><path d="M12.4 -14.4C15.6 -12.1 17.4 -7.7 18.6 -3C19.8 1.7 20.3 6.8 18.7 12C17.1 17.1 13.5 22.2 8.1 25.5C2.7 28.8 -4.4 30.4 -9.4 27.7C-14.3 25 -17 18.2 -17.2 12.5C-17.5 6.8 -15.3 2.2 -14 -2C-12.6 -6.2 -12.2 -10.1 -10 -12.6C-7.8 -15.1 -3.9 -16.3 0.3 -16.7C4.6 -17.1 9.2 -16.8 12.4 -14.4Z" stroke="#ffde9e" fill="none" stroke-width="20"></path></g><g transform="translate(284 201)"><path d="M14.4 -18.8C17.8 -14.3 19 -9 22.1 -2.3C25.2 4.4 30.1 12.3 29.7 20.9C29.2 29.5 23.3 38.7 14.5 43.6C5.6 48.5 -6.2 49 -12.4 42.9C-18.7 36.8 -19.4 24.2 -21.7 15.1C-24 5.9 -27.8 0.2 -29.5 -7.9C-31.3 -15.9 -30.9 -26.2 -25.7 -30.3C-20.4 -34.5 -10.2 -32.5 -2.3 -29.7C5.5 -26.9 11 -23.3 14.4 -18.8Z" stroke="#ffde9e" fill="none" stroke-width="20"></path></g><g transform="translate(123 267)"><path d="M25.4 -31.9C31.5 -25.1 34.1 -15.8 32.4 -8.2C30.8 -0.7 24.9 5.2 19.7 8.8C14.5 12.4 10 13.8 5.4 16C0.8 18.3 -4 21.3 -10.9 22.2C-17.8 23.1 -26.8 21.9 -31 16.8C-35.3 11.8 -34.7 2.9 -31.5 -3.9C-28.3 -10.6 -22.5 -15.2 -16.8 -22C-11.1 -28.8 -5.5 -37.9 2 -40.4C9.6 -42.8 19.3 -38.6 25.4 -31.9Z" stroke="#ffde9e" fill="none" stroke-width="20"></path></g><g transform="translate(635 85)"><path d="M24.8 -31.6C29.1 -25.9 27.5 -15.2 29.9 -4.8C32.4 5.7 38.8 15.9 37 23.6C35.3 31.3 25.2 36.5 16.7 34.9C8.1 33.3 1.1 24.9 -9.1 22.3C-19.3 19.8 -32.6 23.2 -35.6 19.7C-38.6 16.3 -31.2 6 -25.5 -0.7C-19.8 -7.5 -15.8 -10.8 -11.8 -16.6C-7.9 -22.4 -3.9 -30.7 3.1 -34.4C10.2 -38.2 20.4 -37.3 24.8 -31.6Z" stroke="#ffde9e" fill="none" stroke-width="20"></path></g><g transform="translate(749 216)"><path d="M24.6 -27.1C31.8 -23.3 37.4 -15.5 37.2 -7.9C37 -0.3 30.9 7 25.1 12C19.3 17 13.7 19.6 7.5 22.7C1.4 25.8 -5.3 29.4 -10.5 27.9C-15.7 26.4 -19.5 19.9 -20.3 13.9C-21.1 7.9 -19 2.5 -17.6 -2.8C-16.3 -8 -15.7 -13.1 -12.9 -17.6C-10.1 -22.2 -5.1 -26.3 1.8 -28.5C8.7 -30.6 17.5 -30.9 24.6 -27.1Z" stroke="#ffde9e" fill="none" stroke-width="20"></path></g><g transform="translate(688 358)"><path d="M11.8 -13.4C17.3 -9.5 25.2 -7.6 28.6 -2.9C32 1.9 31 9.6 27.4 15.7C23.8 21.9 17.5 26.4 11.2 27.1C4.9 27.7 -1.4 24.5 -6.6 21.2C-11.9 18 -16 14.8 -18 10.7C-20.1 6.6 -20 1.5 -19.8 -4.2C-19.6 -10 -19.4 -16.4 -16.1 -20.8C-12.8 -25.1 -6.4 -27.4 -1.6 -25.4C3.2 -23.5 6.3 -17.4 11.8 -13.4Z" stroke="#ffde9e" fill="none" stroke-width="20"></path></g></g></svg>